<?xml version="1.0" standalone="no"?>
<!DOCTYPE svg PUBLIC "-//W3C//DTD SVG 20010904//EN"
 "http://www.w3.org/TR/2001/REC-SVG-20010904/DTD/svg10.dtd">
<svg version="1.0" xmlns="http://www.w3.org/2000/svg"
 width="144.000000pt" height="144.000000pt" viewBox="0 0 144.000000 144.000000"
 preserveAspectRatio="xMidYMid meet">
<metadata>
Created by potrace 1.14, written by Peter Selinger 2001-2017
</metadata>
<g transform="translate(0.000000,144.000000) scale(0.100000,-0.100000)"
fill="#000000" stroke="none">
<path d="M699 1396 c-35 -49 -107 -109 -159 -131 -36 -16 -66 -20 -155 -20
-100 1 -114 3 -159 28 -27 15 -51 26 -52 24 -2 -2 -4 -238 -4 -525 l-1 -522
26 -34 c35 -46 89 -66 180 -66 128 0 249 -42 308 -106 l36 -39 43 42 c68 66
173 103 297 103 88 0 144 23 182 72 l24 33 3 523 c1 287 1 522 -1 522 -2 0
-26 -12 -53 -27 -45 -25 -59 -27 -159 -28 -88 0 -118 4 -150 19 -61 29 -120
77 -152 123 l-30 43 -24 -34z m31 -81 c0 -9 9 -15 22 -15 17 0 19 -3 10 -12
-7 -7 -12 -19 -12 -29 0 -12 -8 -16 -30 -15 -20 1 -30 6 -30 17 0 8 -5 20 -12
27 -9 9 -7 12 10 12 13 0 22 6 22 15 0 8 5 15 10 15 6 0 10 -7 10 -15z m-450
-145 c10 0 10 -3 0 -15 -7 -8 -10 -22 -6 -30 4 -12 2 -13 -12 -6 -11 6 -24 6
-35 0 -13 -8 -15 -7 -11 6 4 8 1 22 -6 30 -10 12 -9 15 4 15 9 0 19 7 23 16 6
16 7 16 18 0 7 -9 18 -16 25 -16z m127 0 c12 0 13 -3 4 -14 -6 -7 -8 -21 -5
-31 6 -15 4 -16 -14 -6 -14 7 -23 8 -27 1 -11 -18 -23 -10 -18 11 4 12 0 25
-8 30 -11 7 -11 9 2 9 9 0 23 7 30 17 13 15 14 15 17 0 2 -10 10 -17 19 -17z
m140 0 c13 0 13 -3 3 -15 -7 -8 -10 -22 -6 -30 6 -17 -9 -21 -19 -5 -4 7 -13
6 -27 -1 -18 -10 -20 -9 -14 6 3 10 1 24 -5 31 -9 11 -8 14 4 14 8 0 18 8 22
18 6 16 7 16 16 0 6 -10 17 -18 26 -18z m134 0 c11 0 10 -3 -1 -14 -27 -25
-54 -27 -68 -6 -10 16 -10 20 2 20 8 0 17 8 21 18 6 16 7 16 19 0 7 -10 19
-18 27 -18z m119 15 c0 -8 -7 -15 -15 -15 -9 0 -12 6 -9 15 4 8 10 15 15 15 5
0 9 -7 9 -15z m161 -16 c10 0 10 -2 2 -6 -7 -2 -13 -16 -13 -29 0 -24 -1 -24
-29 -10 -32 17 -49 46 -26 46 8 0 15 7 15 17 0 15 1 15 18 0 10 -10 25 -17 33
-18z m99 16 c0 -9 9 -15 21 -15 18 0 19 -3 9 -15 -7 -8 -10 -22 -6 -30 6 -17
-9 -21 -19 -5 -4 7 -13 6 -27 -1 -18 -10 -20 -9 -14 6 3 10 1 24 -5 31 -9 11
-8 14 5 14 9 0 16 7 16 15 0 8 5 15 10 15 6 0 10 -7 10 -15z m152 -15 c20 0
20 -1 5 -18 -13 -14 -14 -21 -5 -30 9 -9 9 -12 1 -12 -7 0 -15 5 -18 10 -4 7
-13 7 -25 0 -16 -9 -18 -8 -13 6 4 11 -1 22 -12 30 -18 13 -18 14 2 14 11 0
24 8 28 18 8 16 8 16 12 0 3 -10 14 -18 25 -18z m-347 -34 l50 -23 -30 -12
c-50 -19 -77 -35 -66 -39 6 -2 25 4 42 12 50 25 60 22 47 -16 -16 -48 -31 -66
-87 -108 -84 -63 -215 -78 -273 -30 l-23 19 35 14 c19 8 44 17 54 21 10 3 16
9 13 13 -4 3 -27 -2 -52 -12 -26 -9 -49 -15 -51 -12 -10 10 33 92 63 119 38
37 138 77 188 77 22 0 63 -11 90 -23z m-585 -86 c10 0 10 -3 0 -15 -7 -8 -10
-21 -7 -28 3 -9 -5 -13 -28 -13 -23 0 -31 4 -28 13 3 7 0 20 -7 28 -10 12 -9
15 9 15 13 0 21 6 21 18 1 16 1 16 14 0 7 -10 19 -18 26 -18z m248 -25 c-17
-32 -53 -50 -42 -20 4 8 1 22 -6 30 -10 12 -10 15 3 15 8 0 18 7 21 17 6 14 8
14 20 -3 11 -14 11 -24 4 -39z m554 25 c17 0 18 -3 8 -15 -7 -8 -10 -21 -7
-28 3 -9 -5 -13 -28 -13 -23 0 -31 4 -28 13 3 7 0 20 -7 28 -10 12 -10 15 3
15 8 0 18 8 22 18 8 16 8 16 12 0 3 -10 14 -18 25 -18z m131 0 c20 -1 20 -2 5
-13 -11 -9 -14 -18 -7 -28 14 -22 11 -33 -6 -19 -8 6 -23 9 -34 5 -17 -5 -20
-3 -14 11 4 11 -1 22 -12 30 -18 13 -18 14 2 14 11 0 24 8 28 18 8 16 8 16 12
0 3 -10 14 -18 26 -18z m-823 10 c0 -5 7 -10 15 -10 8 0 15 -4 15 -10 0 -5 -4
-10 -9 -10 -5 0 -7 -10 -4 -21 5 -18 3 -20 -16 -14 -12 4 -27 2 -34 -3 -9 -8
-12 -1 -13 24 0 22 4 34 13 34 7 0 13 5 13 10 0 6 5 10 10 10 6 0 10 -4 10
-10z m565 -10 c11 -5 14 -9 8 -9 -7 -1 -13 -12 -13 -26 0 -23 -2 -24 -20 -15
-11 6 -20 8 -20 4 0 -4 -2 -5 -5 -2 -7 6 15 58 24 57 3 0 15 -4 26 -9z m-695
-116 c0 -8 7 -14 16 -14 13 0 14 -3 5 -14 -6 -7 -8 -22 -4 -32 6 -17 5 -17 -9
-6 -13 10 -22 11 -37 2 -17 -9 -20 -8 -15 5 4 8 1 22 -6 30 -10 12 -9 15 9 15
15 0 21 6 21 21 0 11 5 17 10 14 6 -3 10 -13 10 -21z m953 -14 c19 -1 20 -2 6
-13 -9 -7 -14 -18 -11 -26 3 -10 0 -12 -13 -7 -10 3 -24 1 -33 -6 -13 -11 -14
-10 -8 9 5 15 2 25 -11 32 -17 10 -16 10 3 11 13 0 25 9 29 23 l8 22 4 -22 c3
-15 12 -23 26 -23z m-823 15 c0 -9 9 -15 23 -15 19 -1 20 -2 5 -11 -9 -5 -15
-16 -12 -23 4 -9 -4 -13 -26 -12 -19 1 -29 5 -25 13 2 7 -4 17 -13 22 -16 10
-16 10 1 11 10 0 20 7 23 15 4 8 10 15 15 15 5 0 9 -7 9 -15z m540 5 c0 -6 10
-15 23 -20 12 -5 16 -9 10 -9 -7 -1 -13 -9 -13 -19 0 -14 -8 -19 -30 -19 -20
0 -29 5 -26 12 2 7 -1 18 -7 24 -8 8 -7 11 6 11 9 0 17 7 17 15 0 8 5 15 10
15 6 0 10 -5 10 -10z m130 -5 c0 -9 9 -15 21 -15 18 0 19 -3 9 -15 -7 -8 -10
-22 -6 -30 4 -13 2 -14 -14 -5 -10 5 -26 7 -36 3 -12 -4 -15 -3 -10 6 4 6 2
18 -4 26 -10 12 -9 15 4 15 9 0 16 7 16 15 0 8 5 15 10 15 6 0 10 -7 10 -15z
m-533 -17 c6 -13 14 -32 17 -42 5 -16 4 -17 -8 -7 -9 7 -24 10 -37 6 -15 -5
-19 -4 -14 4 4 7 1 18 -5 26 -10 12 -9 15 4 15 9 0 16 5 16 10 0 18 16 11 27
-12z m293 -13 c-6 -8 -9 -18 -6 -23 3 -5 -8 -9 -24 -8 -35 1 -40 23 -7 36 36
14 52 13 37 -5z m399 -327 c-1 -291 -5 -312 -65 -343 -21 -11 -40 -23 -42 -27
-2 -5 -38 -8 -80 -8 -42 0 -97 -5 -122 -10 -44 -10 -120 -39 -130 -50 -3 -3
-18 -16 -34 -28 l-28 -22 -40 32 c-60 47 -137 70 -255 76 -57 2 -103 8 -103
12 0 4 -12 11 -26 14 -14 4 -37 19 -50 33 l-24 26 0 273 0 274 500 0 500 0 -1
-252z"/>
<path d="M786 1055 c4 -8 10 -15 15 -15 4 0 6 7 3 15 -4 8 -10 15 -15 15 -4 0
-6 -7 -3 -15z"/>
<path d="M750 1050 c-8 -5 -18 -6 -22 -4 -4 3 -8 0 -8 -6 0 -6 -4 -8 -10 -5
-5 3 -10 1 -10 -4 0 -6 -3 -10 -7 -9 -22 4 -61 -15 -56 -28 3 -8 9 -14 15 -14
5 0 7 4 4 9 -3 4 6 7 19 5 16 -1 23 2 18 9 -4 6 0 8 10 4 10 -3 17 -2 17 4 0
6 5 7 10 4 6 -3 10 -1 10 5 0 6 5 8 10 5 6 -3 10 2 10 12 0 15 2 16 10 3 6 -9
10 -10 10 -3 0 17 -14 23 -30 13z"/>
<path d="M266 783 c13 -26 17 -451 5 -485 l-10 -28 49 0 c49 0 49 0 40 26 -6
14 -10 88 -10 165 l0 139 54 0 c47 0 57 -4 76 -27 l21 -28 -5 25 c-3 14 -6 40
-6 59 0 32 -1 33 -18 18 -12 -11 -36 -17 -70 -17 l-52 0 0 39 c0 22 4 51 10
65 8 23 15 26 60 26 59 0 99 -18 129 -57 l22 -28 -7 55 c-3 30 -8 58 -11 63
-2 4 -67 7 -145 7 -130 0 -140 -1 -132 -17z"/>
<path d="M595 515 l0 -285 48 0 c44 0 47 1 37 19 -6 11 -10 90 -10 185 l0 166
48 0 c50 0 71 -10 92 -45 9 -17 11 -17 6 -2 -3 10 -6 39 -6 63 0 45 0 45 -22
30 -13 -9 -43 -16 -70 -16 l-48 0 0 46 c0 71 12 84 73 84 55 0 83 -13 125 -59
l24 -26 -7 45 c-12 86 0 80 -153 80 l-137 0 0 -285z"/>
<path d="M935 532 l0 -263 109 3 110 3 12 55 c16 68 17 81 2 55 -6 -11 -24
-35 -41 -52 -24 -26 -39 -33 -68 -33 -20 0 -42 6 -48 14 -9 10 -11 79 -9 244
l3 230 -35 4 -35 3 0 -263z"/>
</g>
</svg>
